<svg width="13" height="13" xmlns="http://www.w3.org/2000/svg" fill="none">
 <g>
  <title>Layer 1</title>
  <path id="svg_1" fill="#C8AA6E" d="m6.49999,12.9c3.53462,0 6.40002,-2.8654 6.40002,-6.39999c0,-3.53463 -2.8654,-6.4 -6.40002,-6.4c-3.53463,0 -6.4,2.86537 -6.4,6.4c0,3.53459 2.86537,6.39999 6.4,6.39999zm0,-1.8286c2.52472,0 4.57142,-2.0467 4.57142,-4.57139c0,-2.52473 -2.0467,-4.57143 -4.57142,-4.57143c-2.52473,0 -4.57143,2.0467 -4.57143,4.57143c0,2.52469 2.0467,4.57139 4.57143,4.57139z" clip-rule="evenodd" fill-rule="evenodd"/>
  <path id="svg_2" fill="#C8AA6E" d="m5.40758,3.65713l0.91428,0l0.54858,2.1943l2.19424,0.54857l0,0.91429l-2.74282,0l-0.30477,-0.60955l-0.60951,-0.30475l0,-0.91427l-0.00001,0l0.00001,0l0,-1.82859z" clip-rule="evenodd" fill-rule="evenodd"/>
 </g>
</svg>